<?xml version="1.0" encoding="UTF-8"?>
<svg width="152px" height="47px" viewBox="0 0 152 47" version="1.1" xmlns="http://www.w3.org/2000/svg" xmlns:xlink="http://www.w3.org/1999/xlink">
    <!-- Generator: Sketch 48.2 (47327) - http://www.bohemiancoding.com/sketch -->
    <title>PIXEL KOMUNITAS</title>
    <desc>Created with Sketch.</desc>
    <defs></defs>
    <g id="Demographic-2-Copy-5" stroke="none" stroke-width="1" fill="none" fill-rule="evenodd" transform="translate(-1241.000000, -28.000000)">
        <g id="Items/Top-Nav-Copy" transform="translate(-2.000000, -2.000000)" fill="#292D78">
            <g id="PIXEL-KOMUNITAS" transform="translate(1243.000000, 30.000000)">
                <path d="M3.38188395,23.4998982 C3.38188395,34.7795074 22.9100907,43.9226881 46.9996968,43.9226881 C71.0897072,43.9226881 90.6177118,34.7795074 90.6177118,23.4998982 C90.6177118,12.2206962 71.0897072,3.07690475 46.9996968,3.07690475 C22.9100907,3.07690475 3.38188395,12.2206962 3.38188395,23.4998982 M0,23.4998982 C0,10.5215282 21.0420698,0 46.9996968,0 C72.9573238,0 94,10.5215282 94,23.4998982 C94.0002021,36.4786753 72.9573238,47 46.9996968,47 C21.0420698,47 0,36.4786753 0,23.4998982" id="Fill-1"></path>
                <path d="M26.3556222,19.3396183 L26.3556222,24.5792425 L27.8419971,24.5792425 C28.2701859,24.5792425 29.8919055,24.2052377 29.8919055,21.912889 C29.8919055,19.6205403 28.855874,19.3396183 28.2478299,19.3396183 L26.3556222,19.3396183 Z M23,33 L23,17.0008327 L29.1259592,17.0008327 C30.5674206,17.0008327 33,16.8136211 33,22.0532454 C33,27.2926605 27.8645546,26.3568116 26.3332662,26.3568116 L26.3332662,33 L23,33 Z" id="Fill-3"></path>
                <polygon id="Fill-5" points="36 33 40 33 40 21 36 21"></polygon>
                <path d="M36,17.9998808 C36,16.8954868 36.8951949,16 38,16 C39.1043281,16 40,16.8954868 40,17.9998808 C40,19.1042747 39.1043281,20 38,20 C36.8951949,20 36,19.1042747 36,17.9998808" id="Fill-7"></path>
                <polygon id="Fill-8" points="41.105477 20.4651213 43.9357036 20.4651213 47.0813007 24.7014374 62 7 49.0304675 27.3257905 53.2441716 33 50.1351536 33 47.6501537 29.5350387 45.3047472 33 40 33 45.3729621 26.5581792"></polygon>
                <path d="M56.5815122,25.7831968 L61.8373221,25.7831968 C61.8373221,25.7831968 61.703187,22.8328904 59.2328129,22.7723606 C56.6280956,22.7082027 56.5815122,25.7831968 56.5815122,25.7831968 Z M56.6048039,27.5553664 C56.6048039,27.5553664 55.9305929,31.1426685 60.2790669,31.1426685 C62.3256157,31.1426685 63.9768296,30.1176705 63.9768296,30.1176705 L63.9768296,31.953807 C63.9768296,31.953807 62.3954907,33 59.3024799,33 C54.5114639,33 53,29.5622086 53,26.8933567 C53.0004159,24.2241228 54.418921,21 59.3719391,21 C64.325581,21 65,25.4627894 65,26.1032222 L65,27.5553664 L56.6048039,27.5553664 Z" id="Fill-9"></path>
                <polygon id="Fill-10" points="67 33 71 33 71 17 67 17"></polygon>
                <polygon id="Fill-11" points="23 35 71 35 71 33 23 33"></polygon>
                <polygon id="Fill-12" points="98 5 99.7491103 5 99.7491103 7.26742115 101.58106 5 103.907276 5 101.841835 7.26469664 104 11 101.845987 11 100.652629 8.53243215 99.7491103 9.53589018 99.7491103 11 98 11"></polygon>
                <path d="M105.789442,8.01195704 C105.789442,8.59764913 105.898058,9.01857732 106.115089,9.27433628 C106.332524,9.53050057 106.628034,9.65838006 107.002023,9.65838006 C107.386529,9.65838006 107.684061,9.53293251 107.89462,9.28244275 C108.10538,9.03175032 108.210761,8.58184152 108.210761,7.93271634 C108.210761,7.38654327 108.100728,6.98750253 107.880866,6.73559414 C107.661003,6.48348308 107.362662,6.35763021 106.986246,6.35763021 C106.625405,6.35763021 106.335761,6.48550969 106.117112,6.74147132 C105.898665,6.99743295 105.789442,7.42079308 105.789442,8.01195704 M104,8.00405323 C104,7.05681281 104.26335,6.31932716 104.790049,5.7915963 C105.316748,5.26386543 106.050162,5 106.990291,5 C107.953883,5 108.696602,5.25920422 109.218042,5.77781531 C109.73928,6.29622374 110,7.02256299 110,7.95663041 C110,8.6347362 109.886125,9.19063703 109.658374,9.62473823 C109.430623,10.0588394 109.101537,10.3964737 108.670914,10.6378437 C108.240291,10.8792137 107.703883,11 107.061286,11 C106.408172,11 105.867718,10.8958319 105.439725,10.6872931 C105.011731,10.478957 104.664846,10.1490238 104.39907,9.69789907 C104.133091,9.2467743 104,8.68215902 104,8.00405323" id="Fill-13"></path>
                <polygon id="Fill-14" points="111 5 113.167624 5 114.003633 8.65084355 114.833494 5 117 5 117 11 115.650126 11 115.650126 6.42429006 114.609912 11 113.388038 11 112.349874 6.42429006 112.349874 11 111 11"></polygon>
                <path d="M122.069687,5 L124,5 L124,8.51473315 C124,8.86338347 123.942268,9.19245827 123.827022,9.50195755 C123.711776,9.81166289 123.531144,10.0824232 123.284907,10.3144447 C123.038452,10.54626 122.779969,10.709046 122.509677,10.8028024 C122.133761,10.9342675 121.6824,11 121.155811,11 C120.851186,11 120.518788,10.9798063 120.158618,10.939625 C119.798447,10.8992376 119.497321,10.8196992 119.255458,10.7003915 C119.013376,10.5810839 118.792069,10.411498 118.591318,10.191634 C118.390567,9.97177004 118.253235,9.74531218 118.17932,9.5120544 C118.0597,9.13661653 118,8.8042448 118,8.51473315 L118,5 L119.930313,5 L119.930313,8.59839275 C119.930313,8.92004945 120.024784,9.17144035 120.214163,9.35235937 C120.403543,9.53327838 120.666181,9.62373789 121.002077,9.62373789 C121.33535,9.62373789 121.596457,9.53451473 121.785618,9.35627447 C121.974997,9.17803421 122.069687,8.92540696 122.069687,8.59839275 L122.069687,5 Z" id="Fill-15"></path>
                <polygon id="Fill-16" points="125 5 126.810366 5 129.172541 8.31950121 129.172541 5 131 5 131 11 129.172541 11 126.823076 7.70564812 126.823076 11 125 11"></polygon>
                <polygon id="Fill-17" points="132 11 134 11 134 5 132 5"></polygon>
                <polygon id="Fill-18" points="135 5 140 5 140 6.48150477 138.322364 6.48150477 138.322364 11 136.677451 11 136.677451 6.48150477 135 6.48150477"></polygon>
                <path d="M143.587718,8.71212015 L142.979402,6.5552218 L142.377438,8.71212015 L143.587718,8.71212015 Z M143.940965,10.0093608 L142.007444,10.0093608 L141.738899,11 L140,11 L142.071548,5 L143.92903,5 L146,11 L144.216825,11 L143.940965,10.0093608 Z" id="Fill-19"></path>
                <path d="M148.620274,8.87468756 C148.655309,9.151726 148.726727,9.36289941 148.834527,9.50800513 C149.009895,9.74268729 149.26053,9.86002837 149.586433,9.86002837 C149.829368,9.86002837 150.016863,9.80024319 150.148341,9.68006485 C150.280011,9.56008917 150.345846,9.42086064 150.345846,9.26258191 C150.345846,9.11220699 150.283091,8.97743701 150.157773,8.85887996 C150.032456,8.74012025 149.74178,8.62804837 149.285555,8.52246166 C148.538654,8.34574073 148.006199,8.11085591 147.687803,7.81800986 C147.367098,7.52496116 147.206745,7.15165845 147.206745,6.69789907 C147.206745,6.39978383 147.28875,6.11808417 147.453145,5.85280011 C147.617156,5.58771871 147.863941,5.37938256 148.193501,5.227589 C148.523062,5.07599811 148.974859,5 149.548703,5 C150.252868,5 150.789944,5.13801257 151.159544,5.41363237 C151.529145,5.68925218 151.749172,6.12801459 151.819435,6.72951429 L150.214176,6.82841316 C150.171633,6.56718233 150.081928,6.37728839 149.945445,6.25852868 C149.80877,6.13997163 149.62012,6.08059177 149.379495,6.08059177 C149.181605,6.08059177 149.03261,6.12477201 148.932317,6.21313247 C148.832024,6.30149294 148.781974,6.40910626 148.781974,6.53556711 C148.781974,6.62798081 148.823362,6.71107208 148.905944,6.78504357 C148.986024,6.86164967 149.1766,6.9327839 149.477285,6.99864892 C150.221683,7.16746605 150.754909,7.33851246 151.076962,7.51118017 C151.399014,7.68405053 151.633287,7.89846653 151.779972,8.15422549 C151.926657,8.41038979 152,8.696548 152,9.01310545 C152,9.38519219 151.90221,9.72829832 151.70663,10.0422212 C151.511242,10.356144 151.238084,10.5942714 150.886964,10.7566034 C150.536229,10.9189354 150.093863,11 149.56006,11 C148.622777,11 147.973666,10.8099034 147.612728,10.4301155 C147.251983,10.050125 147.047548,9.56738499 147,8.98149024 L148.620274,8.87468756 Z" id="Fill-20"></path>
            </g>
        </g>
    </g>
</svg>